<?xml version="1.0" encoding="utf-8"?>
<!-- Generator: Adobe Illustrator 16.0.0, SVG Export Plug-In . SVG Version: 6.00 Build 0)  -->
<!DOCTYPE svg PUBLIC "-//W3C//DTD SVG 1.1//EN" "http://www.w3.org/Graphics/SVG/1.1/DTD/svg11.dtd">
<svg version="1.1" id="Layer_1" xmlns="http://www.w3.org/2000/svg" xmlns:xlink="http://www.w3.org/1999/xlink" x="0px" y="0px"
	 width="853.562px" height="680.896px" viewBox="0 0 853.562 680.896" enable-background="new 0 0 853.562 680.896"
	 xml:space="preserve">
<g>
	
		<rect x="531.66" y="74.975" fill="#FFFFFF" stroke="#899798" stroke-width="9" stroke-linejoin="round" stroke-miterlimit="10" width="205.406" height="256.054"/>
	
		<line fill="none" stroke="#899798" stroke-width="9.4822" stroke-linejoin="round" stroke-miterlimit="10" x1="580.146" y1="109.491" x2="704.933" y2="109.491"/>
	
		<line fill="none" stroke="#899798" stroke-width="9.4822" stroke-linejoin="round" stroke-miterlimit="10" x1="580.146" y1="141.064" x2="704.933" y2="141.064"/>
	<ellipse fill="#899798" cx="570.565" cy="265.868" rx="7.565" ry="8.11"/>
	
		<line fill="none" stroke="#899798" stroke-width="10.3927" stroke-linejoin="round" stroke-miterlimit="10" x1="592.012" y1="266.137" x2="704" y2="266.137"/>
	<ellipse fill="#899798" cx="570.565" cy="232.938" rx="7.565" ry="8.11"/>
	
		<line fill="none" stroke="#899798" stroke-width="10.3927" stroke-linejoin="round" stroke-miterlimit="10" x1="592.012" y1="233.206" x2="704" y2="233.206"/>
	<ellipse fill="#899798" cx="570.565" cy="197.812" rx="7.565" ry="8.11"/>
	
		<line fill="none" stroke="#899798" stroke-width="10.3927" stroke-linejoin="round" stroke-miterlimit="10" x1="592.012" y1="198.08" x2="704" y2="198.08"/>
</g>
<path fill="#899798" d="M204.164,285.903c0,0-0.291,1.796,0.517,2.977c0.808,1.18,2.716,1.745,5.692,1.681
	c5.95-0.129,4.397,0.646,8.019-1.164c3.624-1.812,2.717-1.035,2.976-5.433c0.259-4.398-7.891-10.737-12.807-8.797
	C203.645,277.107,204.164,285.903,204.164,285.903z"/>
<path fill="#899798" d="M138.512,205.765c0,0,2.393,7.956,4.204,10.932c1.812,2.974,4.658,6.338,4.399,7.502s-0.13,3.105-0.13,3.105
	s-0.517-0.389-1.421,0.388c-0.907,0.776-2.847,1.552-4.788,1.681c-1.94,0.13-4.01,2.847-5.562,1.294
	c-1.552-1.552,0.194-9.507-1.423-15.328c-1.617-5.821-4.592-9.573-5.498-11.384c-0.906-1.812-0.193-4.916,0.324-5.563
	c0.517-0.646,5.433-1.875,6.532-1.745c1.1,0.129,2.458,1.1,2.522,3.558C137.736,202.66,138.512,205.765,138.512,205.765z"/>
<path fill="#899798" d="M135.148,196.646c0,0,2.911-1.164,1.94-3.88c-0.971-2.718-3.816-2.59-4.463-6.987
	c-0.646-4.398,0.195-8.409-2.78-8.344c-2.976,0.065-7.115,2.071-6.403,4.141c0.71,2.068,3.88,3.364,3.362,7.567
	c-0.517,4.203-1.487,7.243,1.035,7.891S133.014,197.743,135.148,196.646z"/>
<path fill="#899798" d="M127.711,178.534c0,0,3.493-1.876,3.493-3.234c0-1.357-2.134-3.233-3.169-4.527
	c-1.036-1.293-1.811-3.362-1.1-4.074s1.293-2.006-0.519-5.045c-1.81-3.041-5.239-1.811-5.821-0.194s-0.905,5.304,0.194,6.273
	c1.101,0.97,2.912,1.489,2.459,3.946c-0.453,2.457-2.329,2.975-1.747,5.304C122.083,179.311,125.383,179.117,127.711,178.534z"/>
<path fill="#899798" d="M148.925,230.085c0,0-3.88-4.075-6.597-0.389c-2.717,3.688-4.657,3.493-2.717,9.509
	c1.94,6.015,4.269,3.687,7.373,13.194c3.105,9.509,6.599,13.971,6.599,13.971s0.194,2.522,1.552,4.657s3.881,3.493,5.239,6.403
	c1.358,2.911,6.597,0.194,6.597-2.134c0-2.329,2.911-2.522,2.911-2.522s-0.246-4.358-5.239-7.568
	c-5.433-3.492-13.195-22.12-13.972-24.449C149.896,238.429,151.253,231.055,148.925,230.085z"/>
<path fill="#899798" d="M168.33,271.027c0,0-0.583-0.97-0.388-7.955s-5.433-27.554-8.344-30.464
	c-2.911-2.912-4.463-6.986-4.269-10.285c0.194-3.299,0.388-8.344,3.104-9.314c2.716-0.969,10.284-1.552,11.836,4.076
	c1.553,5.626-1.358,5.045-1.164,13c0.194,7.956,5.239,21.732,6.404,23.867c1.164,2.135,5.821,7.567,5.044,10.479
	c-0.776,2.91,1.164,5.821,0.388,8.926c-0.776,3.104-6.015,1.94-9.313,0.388C168.33,272.191,168.33,271.027,168.33,271.027z"/>
<path fill="#899798" d="M180.554,265.789c0,0,2.329-9.509,2.717-13.583c0.388-4.075-1.165-10.866-2.911-20.375
	c-1.747-9.508-1.358-13.001-3.105-15.135c-1.746-2.135-0.97-4.075,0.194-7.762c1.165-3.687,0.389-6.792,3.687-7.567
	c3.299-0.776,8.344-2.522,11.448,1.358c3.105,3.881,3.881,5.433,1.747,10.866c-2.134,5.433-4.463,16.299-3.104,26.39
	c1.358,10.09,2.522,14.941,3.88,17.27c1.359,2.328,0.388,7.955,1.359,9.508c0.97,1.553,0.388,6.403-1.165,6.791
	c-1.552,0.389-2.522-1.358-6.985,2.522c-4.463,3.882-4.851-1.939-6.792-3.493C179.584,271.027,180.554,265.789,180.554,265.789z"/>
<path fill="#899798" d="M195.495,271.027c0,0,1.94-6.791,3.881-8.926c1.941-2.134,2.717-4.269,3.881-10.479
	c1.165-6.209,0-33.763,0.388-38.226s3.299-10.672,10.284-9.12s6.985,4.657,5.821,10.866s-5.045,14.359-6.404,26.972
	c-1.358,12.613-3.298,12.808-2.134,20.374c1.164,7.568,1.552,8.732,0,10.285c-1.553,1.552-1.553,4.269-3.881,4.656
	c-2.329,0.389-0.97-1.939-4.27-1.163c-3.298,0.775-6.015,3.687-7.179,1.552C194.719,275.685,195.495,271.027,195.495,271.027z"/>
<path fill="#899798" d="M217.422,279.565c0,0-6.985-1.553-4.851-5.627c2.135-4.075,3.493-8.732,7.18-10.091
	s9.896-15.135,9.314-16.687c-0.583-1.553-0.97-3.299,1.94-6.21c2.911-2.91,7.762-4.656,9.896-1.746
	c2.134,2.91,4.851,4.074,1.941,9.702c-2.911,5.627-3.105,6.597-4.657,8.926c-1.553,2.328-2.716,1.746-4.852,5.434
	c-2.134,3.687-6.209,10.09-5.821,13.001C227.9,279.178,221.109,281.506,217.422,279.565z"/>
<path fill="#899798" d="M239.737,239.205c0,0-6.792,1.164-7.18-5.821c0,0-0.194-2.135,1.94-3.493
	c2.135-1.358,7.18-6.984,7.956-12.806c0.776-5.822-0.582-9.314,2.135-11.256c2.716-1.939,2.716-1.939,2.716-1.939
	s6.016,0.193,7.18,2.91c1.164,2.717,1.164,4.463-1.165,7.762s-6.792,15.912-6.016,18.24s0.582,4.269,0.582,4.269l-2.134,3.881
	C245.752,240.951,240.707,237.847,239.737,239.205z"/>
<path fill="#899798" d="M252.737,207.188c0,0,4.657,0.194,5.239-0.971c0.583-1.164,0.389-3.104,1.553-4.656
	c1.164-1.553-2.135-1.747-2.135-3.688c0-1.939-0.194-4.851-0.194-4.851s2.716,1.164,4.074-2.717c1.358-3.882,1.358-7.568,0-8.149
	c-1.358-0.582-4.851-2.522-9.119,1.552c-4.27,4.074-1.941,5.239-1.165,6.792c0.776,1.552,0,3.687-2.329,5.238
	c-2.329,1.554-6.726,2.33-3.622,6.987C248.146,207.384,252.737,207.188,252.737,207.188z"/>
<path fill="#899798" d="M216.97,205.959c0,0,2.717,0.26,3.105-0.258c0.388-0.518,3.491-2.976,3.362-4.787
	c-0.129-1.811-2.586-5.303-2.458-12.158c0.129-6.856,1.812-16.171,2.717-18.371c0.905-2.198,2.976-7.889-0.517-10.735
	c-3.493-2.846-6.986-2.33-9.185-0.906c-2.2,1.424-2.458,1.683-2.329,5.304c0.129,3.622,0.905,9.443-0.129,12.679
	c-1.036,3.233-1.036,11.513-1.812,13.193c-0.776,1.683-4.399,6.08-4.528,7.244c-0.129,1.165,0,2.588,0.388,4.011
	s1.036,2.587,2.976,2.587C210.501,203.761,214.383,203.242,216.97,205.959z"/>
<path fill="#899798" d="M221.756,160.037c0,0,3.621-1.035,4.009-3.622c0.388-2.588-3.622-5.562-3.362-10.996
	c0.258-5.433,0.388-7.892,1.293-9.185c0.905-1.294,0.647-6.339-1.552-5.691c-2.2,0.646-2.328,1.423-4.528,0.388
	c-2.198-1.035-4.657-1.035-4.786,0.518s1.424,6.079,1.424,12.159c0,6.081-2.976,9.057-3.493,10.737
	c-0.519,1.682,1.422,5.691,2.846,5.562S218.263,161.46,221.756,160.037z"/>
<path fill="#899798" d="M222.402,118.254c0,0,1.942-0.259,2.071-1.424c0.129-1.163-1.165-8.795-5.433-7.891
	c-4.269,0.905-6.34,6.985-5.304,8.797c1.035,1.81,2.458-1.294,2.069,2.198c-0.389,3.493-3.493,5.045-3.622,6.728
	c-0.129,1.682,3.622,5.174,7.114,4.915c3.492-0.258,7.374-3.104,6.209-5.82c-1.164-2.717-2.329-0.26-3.233-3.752
	S222.402,118.254,222.402,118.254z"/>
<path fill="#899798" d="M190.062,202.726c0,0,5.562-1.682,5.433-6.469c-0.129-4.786-3.75-6.728-4.786-16.946
	s0.388-17.334,0.776-17.852c0.388-0.517,1.293-9.832-2.717-10.09c-4.011-0.259-8.538-2.069-10.22,3.621
	c-1.682,5.692,1.682,4.528,1.294,10.091c-0.388,5.562-0.13,13.323,0.258,17.723c0.388,4.398-0.388,4.787-1.94,8.021
	c-1.553,3.233-2.716,5.044-1.811,7.891C177.255,201.562,179.325,204.148,190.062,202.726z"/>
<path fill="#899798" d="M188.51,152.922c0,0,3.751,0,4.527-4.787c0.777-4.786-2.717-2.587-3.235-8.021
	c-0.517-5.434-0.776-7.633-1.292-9.701c-0.518-2.07,1.681-10.738-0.777-11.255c-2.457-0.518-8.149-1.422-9.442,1.423
	c-1.295,2.846-0.13,5.175,0.517,6.469c0.647,1.293,0.388,12.548,0.388,14.359c0,1.811-2.716,9.055,1.423,10.478
	C184.758,153.31,188.51,152.922,188.51,152.922z"/>
<path fill="#899798" d="M185.664,119.676c0,0,3.363-1.035,3.105-4.009c-0.259-2.977-3.106-1.941-3.364-9.702
	c0,0,3.75,0.646,2.328-3.882c-1.423-4.527-5.045-9.961-8.278-4.269c-3.234,5.692-2.588,8.28-1.552,8.409
	c1.034,0.129,1.94-0.646,1.94,1.552s-3.623,6.079-2.847,7.503C177.772,116.702,173.892,119.288,185.664,119.676z"/>
<path fill="#899798" d="M153.712,133.777c0.303-0.243,5.304-1.812,3.881-4.787c-1.423-2.974-3.881-1.293-4.269-8.408
	c0,0,2.071-0.389,1.164-4.01c-0.905-3.622-4.139-5.433-5.951-3.104c-1.81,2.328-2.845,3.622-2.586,5.82
	c0.257,2.199,0.128,1.812,1.292,1.941c1.165,0.129,1.165,0.775,1.165,2.586c0,1.812-1.811,4.528-2.845,5.305
	c-1.036,0.775-0.776,3.622,1.94,4.397C150.22,134.294,151.772,135.329,153.712,133.777z"/>
<path fill="#899798" d="M153.971,167.928c0,0,9.443-1.424,8.408-4.657c-1.034-3.233-2.458-2.847-4.398-8.926
	c-1.941-6.08-1.165-11.125-0.777-14.617c0.389-3.493,0.129-7.761-4.786-6.468c-4.915,1.293-7.114-1.295-6.855,4.785
	c0.257,6.08,0.905,5.305,1.81,10.22c0.906,4.916,0.389,12.936-0.258,14.229s1.553,5.305,3.234,5.562
	C152.03,168.315,152.548,167.41,153.971,167.928z"/>
<path fill="#899798" d="M151.384,167.152c0,0-3.235,1.163-2.847,4.786c0.388,3.621,1.294,3.362,2.716,6.079
	c1.424,2.717,2.2,10.35,1.812,12.289c-0.388,1.941,0.518,7.504,0.646,8.797c0.129,1.294-1.035,6.856-1.552,8.668
	c-0.519,1.811,1.164,5.433,2.457,5.691c1.294,0.26,4.14-0.13,5.822-0.388c1.682-0.259,6.339-2.07,7.115-1.812
	c0.776,0.258,3.881-2.328,1.94-6.209s-3.493-0.777-5.045-11.771c-1.552-10.995-0.259-5.691-1.94-10.995
	c-1.682-5.305,2.716-13.714-1.94-15.007C155.912,165.987,151.384,167.152,151.384,167.152z"/>
<path fill="#899798" d="M207.655,275.685c0,0,0.777,5.174-0.646,7.503c-1.424,2.328-2.588,2.458-3.105,4.397
	c-0.519,1.941-7.245,1.165-7.245,1.165l-0.129-13.195C196.531,275.555,206.233,272.968,207.655,275.685z"/>
<path fill="#899798" d="M196.531,273.485c0,0,1.034,19.017-1.683,23.155c-2.716,4.14-5.95,5.562-9.054,4.916
	c0,0-5.304-2.716-4.786-7.632c0.517-4.916-1.036-16.947-1.036-16.947s3.105-2.586,4.657-2.457
	C186.182,274.649,194.85,270.769,196.531,273.485z"/>
<path fill="#899798" d="M196.66,291.596c0,0,3.623-2.069,8.797-1.164c5.174,0.906,8.15,3.104,7.502,5.821
	c-0.646,2.717-3.622,3.494-5.562,5.562c-1.94,2.07-6.728,10.09-20.051,8.667c0,0-3.493-0.388-2.458-2.976
	c1.034-2.586,1.293-6.079,3.881-5.691C191.355,302.203,195.625,299.746,196.66,291.596z"/>
<path fill="#899798" d="M185.276,300.651c0,0,0.646,7.891-2.458,8.927c-3.105,1.034-14.488,1.81-15.523,0.128
	c-1.034-1.682-2.069-5.433-1.552-5.433c0.518,0,5.821-6.728,6.856-6.599c1.035,0.13,3.622-3.879,8.538-2.845
	C186.053,295.865,185.276,300.651,185.276,300.651z"/>
<path fill="#899798" d="M166.001,305.309c0,0-6.209,1.293-7.115-5.692c0,0-4.787-0.258-4.269-5.95
	c0.518-5.692-0.389-10.866,4.011-11.126c0,0,1.164-4.268,3.622-5.433c2.458-1.164,5.821-6.598,8.797-5.692
	c2.975,0.906,9.442,3.883,10.089,6.34c0.647,2.457-2.457,17.722-2.457,17.722l-5.045,2.458c0,0-1.552-3.362-3.623-3.492
	l-0.129,2.587l1.681,2.329C171.563,299.358,172.08,305.05,166.001,305.309z"/>
<path fill="#899798" d="M213.735,290.237l-8.926,1.746c0,0-15.329,16.882-19.016,15.33c-3.687-1.553-16.105-7.955-16.105-7.955
	s-5.045-7.18-4.851-7.763c0.194-0.581,4.657-8.731,4.657-8.731l9.12-13.001l15.135,4.851L213.735,290.237z"/>
<rect x="83.791" y="73.736" fill="none" stroke="#899798" stroke-width="9" stroke-linejoin="round" stroke-miterlimit="10" width="210.451" height="262.344"/>
<g>
	
		<rect x="271.592" y="112.9" fill="#FFFFFF" stroke="#899798" stroke-width="9" stroke-linejoin="round" stroke-miterlimit="10" width="271.142" height="338"/>
	<circle fill="#899798" cx="319.087" cy="171.242" r="10.083"/>
	
		<line fill="none" stroke="#899798" stroke-width="9" stroke-linejoin="round" stroke-miterlimit="10" x1="347.67" y1="171.575" x2="503.004" y2="171.575"/>
	<circle fill="#899798" cx="319.087" cy="207.742" r="10.083"/>
	
		<line fill="none" stroke="#899798" stroke-width="9" stroke-linejoin="round" stroke-miterlimit="10" x1="347.67" y1="208.075" x2="503.004" y2="208.075"/>
	<circle fill="#899798" cx="319.087" cy="244.242" r="10.083"/>
	
		<line fill="none" stroke="#899798" stroke-width="9" stroke-linejoin="round" stroke-miterlimit="10" x1="347.67" y1="244.575" x2="503.004" y2="244.575"/>
	<circle fill="#899798" cx="319.087" cy="280.742" r="10.083"/>
	
		<line fill="none" stroke="#899798" stroke-width="9" stroke-linejoin="round" stroke-miterlimit="10" x1="347.67" y1="281.075" x2="503.004" y2="281.075"/>
	<circle fill="#899798" cx="319.087" cy="317.242" r="10.083"/>
	
		<line fill="none" stroke="#899798" stroke-width="9" stroke-linejoin="round" stroke-miterlimit="10" x1="347.67" y1="317.575" x2="503.004" y2="317.575"/>
	<circle fill="#899798" cx="319.087" cy="353.742" r="10.083"/>
	
		<line fill="none" stroke="#899798" stroke-width="9" stroke-linejoin="round" stroke-miterlimit="10" x1="347.67" y1="354.075" x2="503.004" y2="354.075"/>
	<circle fill="#899798" cx="319.087" cy="390.242" r="10.083"/>
	
		<line fill="none" stroke="#899798" stroke-width="9" stroke-linejoin="round" stroke-miterlimit="10" x1="347.67" y1="390.575" x2="503.004" y2="390.575"/>
</g>
<g>
	<g>
		<path fill="#899798" d="M576.6,606.903c0,8.25-6.75,15-15,15H268.615c-8.25,0-15-6.75-15-15v-92.494c0-8.25,6.75-15,15-15H561.6
			c8.25,0,15,6.75,15,15V606.903z"/>
	</g>
	<g>
		<path fill="#FFFFFF" d="M324.189,564.74v16.554h-8.556v-43.958h16.431c2.148,0,4.111,0.341,5.889,1.023
			c1.777,0.682,3.307,1.633,4.589,2.852c1.28,1.22,2.263,2.666,2.944,4.34c0.683,1.674,1.023,3.503,1.023,5.487
			c0,1.983-0.341,3.823-1.023,5.518c-0.682,1.695-1.664,3.142-2.944,4.34c-1.282,1.2-2.812,2.14-4.589,2.821
			c-1.777,0.683-3.74,1.023-5.889,1.023H324.189z M331.01,557.362c2.148,0,3.834-0.568,5.053-1.705s1.829-2.655,1.829-4.558
			c0-1.983-0.61-3.533-1.829-4.649s-2.904-1.674-5.053-1.674h-6.758v12.586H331.01z"/>
		<path fill="#FFFFFF" d="M371.311,581.294c-0.084-0.33-0.146-0.806-0.187-1.426c-0.042-0.62-0.062-1.24-0.062-1.86
			c-0.828,1.447-2.037,2.491-3.627,3.131c-1.592,0.641-3.193,0.961-4.806,0.961c-1.86,0-3.503-0.32-4.929-0.961
			c-1.426-0.64-2.635-1.497-3.627-2.572s-1.747-2.346-2.264-3.813c-0.518-1.467-0.775-3.027-0.775-4.681V550.79h8.246v17.607
			c0,1.736,0.444,3.193,1.334,4.371c0.889,1.179,2.303,1.768,4.246,1.768c1.86,0,3.287-0.559,4.278-1.674
			c0.992-1.116,1.488-2.562,1.488-4.341V550.79h8.246v24.986c0,1.199,0.03,2.284,0.093,3.255c0.062,0.972,0.134,1.726,0.217,2.263
			H371.311z"/>
		<path fill="#FFFFFF" d="M387.678,581.294v-44.888h8.122v17.731c0.702-1.074,1.85-2.035,3.44-2.883
			c1.592-0.847,3.523-1.271,5.798-1.271c2.231,0,4.216,0.402,5.952,1.209c1.736,0.806,3.213,1.922,4.433,3.348
			c1.219,1.426,2.14,3.11,2.759,5.053c0.62,1.943,0.93,4.052,0.93,6.324c0,2.315-0.34,4.454-1.022,6.417
			c-0.683,1.964-1.653,3.669-2.914,5.115c-1.261,1.447-2.78,2.572-4.558,3.379c-1.777,0.806-3.74,1.209-5.889,1.209
			c-2.108,0-3.938-0.414-5.488-1.24c-1.549-0.826-2.738-1.9-3.564-3.224v3.72H387.678z M410.865,565.979
			c0-2.81-0.734-4.949-2.2-6.417c-1.468-1.466-3.255-2.2-5.363-2.2c-1.034,0-2.015,0.186-2.944,0.558
			c-0.931,0.372-1.736,0.92-2.418,1.643c-0.683,0.724-1.23,1.623-1.644,2.697c-0.413,1.075-0.62,2.315-0.62,3.72
			c0,1.364,0.207,2.584,0.62,3.658c0.413,1.075,0.961,1.984,1.644,2.729c0.682,0.744,1.487,1.312,2.418,1.705
			c0.93,0.393,1.91,0.589,2.944,0.589c2.108,0,3.896-0.744,5.363-2.232C410.131,570.94,410.865,568.791,410.865,565.979z"/>
		<path fill="#FFFFFF" d="M425.621,581.294v-44.888h8.246v44.888H425.621z"/>
		<path fill="#FFFFFF" d="M441.68,540.808c0-1.446,0.496-2.666,1.488-3.657c0.992-0.992,2.189-1.488,3.596-1.488
			c1.446,0,2.655,0.496,3.627,1.488c0.971,0.991,1.457,2.211,1.457,3.657c0,1.364-0.486,2.542-1.457,3.534
			c-0.972,0.992-2.181,1.488-3.627,1.488c-1.406,0-2.604-0.496-3.596-1.488S441.68,542.172,441.68,540.808z M442.672,581.294V550.79
			h8.246v30.504H442.672z"/>
		<path fill="#FFFFFF" d="M464.186,571.25c0.082,1.199,0.578,2.273,1.488,3.224c0.908,0.951,2.271,1.427,4.092,1.427
			c1.363,0,2.376-0.3,3.037-0.899c0.661-0.599,0.992-1.312,0.992-2.139c0-0.703-0.248-1.312-0.744-1.829s-1.344-0.899-2.541-1.147
			l-4.03-0.93c-2.976-0.661-5.146-1.808-6.511-3.441c-1.363-1.632-2.045-3.523-2.045-5.673c0-1.364,0.288-2.655,0.867-3.875
			c0.578-1.219,1.374-2.272,2.387-3.162c1.014-0.888,2.211-1.602,3.597-2.139c1.384-0.537,2.903-0.806,4.558-0.806
			c2.148,0,3.967,0.3,5.455,0.898c1.488,0.6,2.697,1.354,3.627,2.263c0.93,0.91,1.622,1.871,2.077,2.884
			c0.454,1.013,0.723,1.933,0.806,2.759l-6.881,1.55c-0.084-0.454-0.218-0.919-0.404-1.395c-0.186-0.475-0.486-0.92-0.898-1.333
			c-0.414-0.413-0.92-0.744-1.52-0.992s-1.332-0.372-2.2-0.372c-1.075,0-1.995,0.289-2.759,0.868
			c-0.766,0.579-1.147,1.302-1.147,2.17c0,0.744,0.258,1.344,0.774,1.798c0.518,0.455,1.188,0.766,2.016,0.93l4.34,0.931
			c3.017,0.619,5.279,1.777,6.789,3.472c1.508,1.695,2.264,3.658,2.264,5.89c0,1.24-0.238,2.46-0.713,3.658
			c-0.477,1.199-1.209,2.273-2.201,3.224c-0.992,0.952-2.232,1.716-3.721,2.294c-1.488,0.579-3.224,0.868-5.208,0.868
			c-2.315,0-4.257-0.331-5.827-0.991c-1.572-0.661-2.853-1.467-3.845-2.419c-0.991-0.95-1.726-1.973-2.201-3.068
			c-0.476-1.095-0.755-2.077-0.837-2.945L464.186,571.25z"/>
		<path fill="#FFFFFF" d="M496.549,581.294h-8.246v-44.888h8.246v16.926c0.992-1.198,2.253-2.056,3.783-2.573
			c1.527-0.517,3.016-0.774,4.463-0.774c1.943,0,3.627,0.32,5.053,0.961c1.427,0.641,2.604,1.498,3.535,2.572
			c0.93,1.075,1.621,2.356,2.076,3.845c0.455,1.487,0.683,3.059,0.683,4.712v19.22h-8.246V563.5c0-1.736-0.444-3.183-1.333-4.34
			c-0.89-1.157-2.325-1.736-4.309-1.736c-1.736,0-3.101,0.568-4.093,1.705c-0.991,1.138-1.529,2.553-1.612,4.247V581.294z"/>
	</g>
</g>
<g>
	<g>
		<path fill="none" stroke="#899798" stroke-width="10" stroke-miterlimit="10" d="M571,561.896c0,0,97.426,5.369,88.707-188.203"/>
		<g>
			<polygon fill="#899798" points="684.914,379.267 657.073,337.906 635.169,382.694 			"/>
		</g>
	</g>
</g>
<g>
	<g>
		<line fill="none" stroke="#899798" stroke-width="10" stroke-miterlimit="10" x1="405" y1="456.776" x2="405" y2="502.896"/>
		<g>
			<polygon fill="#899798" points="380.068,464.071 405,420.896 429.932,464.071 			"/>
		</g>
	</g>
</g>
<g>
	<g>
		<path fill="none" stroke="#899798" stroke-width="10" stroke-miterlimit="10" d="M169.95,381.188
			c-2.263,60.79,3.966,178.316,85.143,184.707"/>
		<g>
			<polygon fill="#899798" points="144.838,386.821 172.597,345.406 194.59,390.151 			"/>
		</g>
	</g>
</g>
</svg>
