<?xml version="1.0" encoding="utf-8"?>
<!-- Generator: Adobe Illustrator 16.0.0, SVG Export Plug-In . SVG Version: 6.00 Build 0)  -->
<!DOCTYPE svg PUBLIC "-//W3C//DTD SVG 1.1//EN" "http://www.w3.org/Graphics/SVG/1.1/DTD/svg11.dtd">
<svg version="1.1" id="Layer_1" xmlns="http://www.w3.org/2000/svg" xmlns:xlink="http://www.w3.org/1999/xlink" x="0px" y="0px"
	 width="853.562px" height="680.896px" viewBox="0 0 853.562 680.896" enable-background="new 0 0 853.562 680.896"
	 xml:space="preserve">
<rect x="594.902" y="163.954" fill="#FFFFFF" stroke="#899798" stroke-width="7" stroke-linejoin="round" stroke-miterlimit="10" width="182.164" height="227.082"/>
<rect x="484.902" y="273.884" fill="#FFFFFF" stroke="#899798" stroke-width="6.5943" stroke-linejoin="round" stroke-miterlimit="10" width="198.665" height="247.651"/>
<g>
	<path fill="#899798" d="M654,380.896c0,2.75-2.25,5-5,5H521c-2.75,0-5-2.25-5-5v-77c0-2.75,2.25-5,5-5h128c2.75,0,5,2.25,5,5
		V380.896z"/>
</g>
<circle fill="#899798" cx="519.702" cy="477.091" r="7.388"/>
<line fill="none" stroke="#899798" stroke-width="6.5943" stroke-linejoin="round" stroke-miterlimit="10" x1="540.645" y1="477.335" x2="654.457" y2="477.335"/>
<circle fill="#899798" cx="519.702" cy="447.091" r="7.388"/>
<line fill="none" stroke="#899798" stroke-width="6.5943" stroke-linejoin="round" stroke-miterlimit="10" x1="540.645" y1="447.335" x2="654.457" y2="447.335"/>
<circle fill="#899798" cx="519.702" cy="415.091" r="7.388"/>
<line fill="none" stroke="#899798" stroke-width="6.5943" stroke-linejoin="round" stroke-miterlimit="10" x1="540.645" y1="415.335" x2="654.457" y2="415.335"/>
<path fill="#899798" d="M178.31,376.047c0,0-0.324,1.999,0.576,3.312s3.023,1.942,6.336,1.871c6.623-0.144,4.895,0.72,8.926-1.296
	c4.033-2.016,3.023-1.152,3.312-6.047c0.289-4.896-8.782-11.951-14.254-9.791S178.31,376.047,178.31,376.047z"/>
<path fill="#899798" d="M105.237,286.849c0,0,2.663,8.855,4.679,12.167c2.017,3.311,5.185,7.055,4.896,8.351
	s-0.145,3.456-0.145,3.456s-0.575-0.432-1.583,0.432c-1.009,0.864-3.169,1.728-5.329,1.871c-2.16,0.145-4.463,3.168-6.191,1.44
	c-1.728-1.728,0.216-10.582-1.584-17.062c-1.8-6.479-5.111-10.655-6.119-12.67c-1.008-2.016-0.215-5.472,0.36-6.192
	c0.575-0.72,6.047-2.088,7.271-1.944c1.224,0.145,2.736,1.225,2.808,3.96C104.374,283.393,105.237,286.849,105.237,286.849z"/>
<path fill="#899798" d="M101.493,276.698c0,0,3.24-1.295,2.16-4.318c-1.08-3.024-4.247-2.881-4.967-7.776
	c-0.719-4.895,0.217-9.36-3.095-9.287c-3.312,0.072-7.919,2.305-7.127,4.608c0.791,2.303,4.318,3.744,3.742,8.423
	c-0.575,4.679-1.655,8.062,1.152,8.782S99.117,277.921,101.493,276.698z"/>
<path fill="#899798" d="M93.215,256.541c0,0,3.888-2.088,3.888-3.6s-2.375-3.599-3.528-5.039c-1.153-1.44-2.016-3.743-1.224-4.536
	c0.792-0.792,1.439-2.231-0.577-5.615c-2.015-3.384-5.831-2.016-6.479-0.216c-0.648,1.799-1.007,5.903,0.216,6.983
	c1.225,1.08,3.241,1.657,2.737,4.392c-0.504,2.735-2.592,3.311-1.944,5.903S90.624,257.188,93.215,256.541z"/>
<path fill="#899798" d="M116.827,313.918c0,0-4.319-4.535-7.343-0.432c-3.024,4.104-5.184,3.888-3.024,10.583
	s4.751,4.104,8.207,14.687s7.344,15.55,7.344,15.55s0.216,2.808,1.728,5.184c1.512,2.376,4.32,3.888,5.832,7.127
	c1.512,3.24,7.343,0.217,7.343-2.375s3.24-2.808,3.24-2.808s-0.273-4.851-5.832-8.424c-6.047-3.887-14.687-24.621-15.551-27.213
	C117.907,323.205,119.419,314.998,116.827,313.918z"/>
<path fill="#899798" d="M138.426,359.489c0,0-0.648-1.08-0.432-8.854c0.216-7.775-6.047-30.669-9.287-33.908
	c-3.24-3.24-4.968-7.775-4.751-11.447c0.216-3.672,0.432-9.287,3.456-10.367c3.023-1.079,11.447-1.728,13.174,4.536
	c1.728,6.263-1.512,5.615-1.296,14.47c0.216,8.855,5.832,24.189,7.127,26.565c1.295,2.376,6.479,8.423,5.615,11.663
	c-0.864,3.239,1.296,6.479,0.432,9.935c-0.864,3.456-6.695,2.16-10.366,0.432C138.426,360.785,138.426,359.489,138.426,359.489z"/>
<path fill="#899798" d="M152.032,353.658c0,0,2.592-10.583,3.024-15.118c0.432-4.536-1.296-12.095-3.24-22.678
	s-1.512-14.471-3.456-16.847c-1.943-2.375-1.08-4.535,0.216-8.639c1.296-4.104,0.432-7.559,4.104-8.423
	c3.672-0.864,9.287-2.808,12.743,1.512s4.32,6.047,1.944,12.095c-2.375,6.047-4.967,18.142-3.456,29.373
	c1.512,11.23,2.808,16.63,4.319,19.222c1.512,2.592,0.432,8.854,1.512,10.583c1.08,1.728,0.432,7.127-1.296,7.559
	c-1.728,0.433-2.808-1.512-7.775,2.808c-4.967,4.32-5.399-2.159-7.559-3.888C150.952,359.489,152.032,353.658,152.032,353.658z"/>
<path fill="#899798" d="M168.662,359.489c0,0,2.16-7.559,4.319-9.935c2.16-2.376,3.024-4.752,4.32-11.663s0-37.58,0.432-42.547
	c0.432-4.968,3.672-11.879,11.447-10.151c7.775,1.728,7.775,5.184,6.479,12.095s-5.615,15.982-7.127,30.021
	c-1.512,14.039-3.671,14.255-2.375,22.678s1.728,9.719,0,11.447c-1.728,1.728-1.728,4.751-4.319,5.183
	c-2.592,0.433-1.08-2.159-4.752-1.295c-3.671,0.863-6.695,4.104-7.991,1.728S168.662,359.489,168.662,359.489z"/>
<path fill="#899798" d="M193.067,368.992c0,0-7.775-1.728-5.399-6.263c2.376-4.536,3.888-9.72,7.991-11.231
	s11.015-16.846,10.367-18.573c-0.648-1.729-1.08-3.672,2.16-6.912c3.24-3.239,8.639-5.183,11.015-1.943
	c2.375,3.239,5.399,4.535,2.16,10.799s-3.456,7.343-5.184,9.935c-1.728,2.592-3.023,1.944-5.399,6.048
	c-2.375,4.104-6.911,11.23-6.479,14.471C204.73,368.561,197.171,371.152,193.067,368.992z"/>
<path fill="#899798" d="M217.905,324.069c0,0-7.559,1.296-7.991-6.479c0,0-0.216-2.376,2.16-3.888
	c2.376-1.512,7.991-7.774,8.855-14.254c0.864-6.479-0.648-10.367,2.376-12.527c3.023-2.159,3.023-2.159,3.023-2.159
	s6.696,0.216,7.992,3.239c1.296,3.024,1.296,4.968-1.296,8.64c-2.592,3.671-7.56,17.71-6.696,20.302s0.648,4.751,0.648,4.751
	l-2.375,4.319C224.6,326.013,218.984,322.558,217.905,324.069z"/>
<path fill="#899798" d="M232.375,288.434c0,0,5.184,0.216,5.831-1.08c0.648-1.296,0.433-3.456,1.729-5.184s-2.376-1.944-2.376-4.104
	s-0.216-5.399-0.216-5.399s3.023,1.296,4.535-3.024c1.512-4.319,1.512-8.423,0-9.071s-5.399-2.808-10.15,1.728
	c-4.752,4.535-2.16,5.831-1.296,7.559c0.863,1.728,0,4.104-2.592,5.831c-2.592,1.728-7.487,2.593-4.031,7.776
	C227.265,288.65,232.375,288.434,232.375,288.434z"/>
<path fill="#899798" d="M192.564,287.065c0,0,3.024,0.289,3.456-0.287c0.432-0.576,3.886-3.312,3.742-5.328
	s-2.878-5.903-2.735-13.534c0.144-7.631,2.017-17.999,3.024-20.446c1.007-2.447,3.312-8.782-0.575-11.95
	c-3.888-3.168-7.775-2.593-10.224-1.008s-2.735,1.873-2.592,5.904c0.144,4.031,1.007,10.51-0.144,14.11
	c-1.152,3.6-1.152,12.814-2.016,14.687s-4.896,6.767-5.04,8.062s0,2.88,0.432,4.464c0.432,1.583,1.152,2.879,3.312,2.879
	S189.685,284.041,192.564,287.065z"/>
<path fill="#899798" d="M197.892,235.952c0,0,4.031-1.152,4.463-4.032c0.432-2.879-4.031-6.191-3.743-12.238
	c0.287-6.047,0.432-8.784,1.439-10.223s0.72-7.055-1.728-6.335s-2.591,1.583-5.04,0.432c-2.446-1.151-5.183-1.151-5.327,0.577
	c-0.144,1.728,1.584,6.766,1.584,13.534c0,6.768-3.312,10.08-3.888,11.951c-0.577,1.872,1.583,6.334,3.167,6.191
	C190.405,235.664,194.004,237.535,197.892,235.952z"/>
<path fill="#899798" d="M198.61,189.445c0,0,2.161-0.289,2.305-1.584s-1.296-9.79-6.047-8.783s-7.056,7.775-5.904,9.791
	c1.152,2.015,2.735-1.44,2.303,2.447s-3.888,5.615-4.031,7.487c-0.144,1.872,4.031,5.759,7.918,5.471
	c3.887-0.288,8.207-3.456,6.911-6.479c-1.296-3.024-2.592-0.288-3.599-4.175C197.459,189.733,198.61,189.445,198.61,189.445z"/>
<path fill="#899798" d="M162.615,283.466c0,0,6.191-1.871,6.047-7.199c-0.144-5.328-4.174-7.488-5.327-18.862
	c-1.153-11.374,0.432-19.294,0.864-19.87c0.432-0.576,1.439-10.943-3.024-11.231c-4.464-0.288-9.503-2.303-11.375,4.032
	c-1.872,6.335,1.873,5.04,1.441,11.231c-0.432,6.191-0.145,14.83,0.287,19.726c0.432,4.896-0.432,5.329-2.16,8.928
	c-1.728,3.599-3.023,5.614-2.015,8.782C148.36,282.17,150.664,285.049,162.615,283.466z"/>
<path fill="#899798" d="M160.887,228.032c0,0,4.176,0,5.04-5.327c0.864-5.328-3.025-2.88-3.601-8.927
	c-0.575-6.047-0.864-8.496-1.439-10.799c-0.576-2.303,1.871-11.952-0.864-12.527c-2.735-0.575-9.071-1.583-10.51,1.584
	c-1.441,3.167-0.145,5.759,0.576,7.199c0.72,1.44,0.432,13.967,0.432,15.982s-3.023,10.079,1.584,11.663
	C156.711,228.463,160.887,228.032,160.887,228.032z"/>
<path fill="#899798" d="M157.72,191.029c0,0,3.743-1.152,3.456-4.464c-0.288-3.312-3.457-2.16-3.744-10.799
	c0,0,4.175,0.72,2.592-4.319c-1.584-5.04-5.615-11.087-9.214-4.751c-3.6,6.336-2.88,9.216-1.728,9.359
	c1.15,0.144,2.16-0.72,2.16,1.728c0,2.448-4.032,6.767-3.169,8.351C148.936,187.717,144.617,190.597,157.72,191.029z"/>
<path fill="#899798" d="M122.155,206.723c0.337-0.27,5.904-2.016,4.319-5.328c-1.583-3.311-4.319-1.439-4.751-9.358
	c0,0,2.305-0.432,1.296-4.464c-1.007-4.032-4.607-6.047-6.624-3.456c-2.015,2.591-3.167,4.032-2.878,6.479
	c0.287,2.448,0.143,2.016,1.439,2.16c1.296,0.145,1.296,0.863,1.296,2.879c0,2.017-2.016,5.04-3.167,5.904
	c-1.152,0.864-0.864,4.031,2.16,4.895C118.269,207.299,119.996,208.451,122.155,206.723z"/>
<path fill="#899798" d="M122.443,244.734c0,0,10.511-1.584,9.359-5.184c-1.151-3.599-2.736-3.168-4.896-9.935
	c-2.16-6.767-1.296-12.383-0.864-16.27c0.432-3.888,0.144-8.638-5.328-7.199c-5.47,1.439-7.918-1.441-7.63,5.327
	c0.287,6.768,1.007,5.904,2.015,11.375c1.009,5.471,0.433,14.398-0.287,15.838c-0.72,1.44,1.728,5.904,3.599,6.191
	C120.283,245.166,120.859,244.158,122.443,244.734z"/>
<path fill="#899798" d="M119.564,243.871c0,0-3.601,1.295-3.169,5.327c0.432,4.032,1.44,3.743,3.023,6.767
	c1.584,3.024,2.448,11.52,2.017,13.679c-0.432,2.16,0.576,8.351,0.72,9.791c0.144,1.44-1.152,7.632-1.727,9.647
	c-0.577,2.016,1.295,6.047,2.735,6.335c1.44,0.289,4.607-0.145,6.479-0.432c1.872-0.288,7.056-2.304,7.919-2.016
	c0.864,0.287,4.319-2.592,2.16-6.911c-2.16-4.32-3.888-0.865-5.615-13.103c-1.728-12.238-0.289-6.334-2.16-12.238
	c-1.872-5.904,3.023-15.263-2.16-16.703C124.604,242.575,119.564,243.871,119.564,243.871z"/>
<path fill="#899798" d="M182.196,364.673c0,0,0.865,5.759-0.719,8.351c-1.584,2.592-2.88,2.736-3.456,4.896
	c-0.577,2.16-8.063,1.296-8.063,1.296l-0.144-14.687C169.814,364.528,180.613,361.649,182.196,364.673z"/>
<path fill="#899798" d="M169.814,362.225c0,0,1.151,21.167-1.873,25.773c-3.023,4.607-6.623,6.191-10.078,5.472
	c0,0-5.904-3.023-5.327-8.495c0.575-5.472-1.153-18.862-1.153-18.862s3.456-2.879,5.184-2.735
	C158.295,363.521,167.943,359.201,169.814,362.225z"/>
<path fill="#899798" d="M169.958,382.383c0,0,4.033-2.304,9.792-1.296c5.759,1.009,9.071,3.456,8.351,6.479
	c-0.719,3.023-4.031,3.889-6.191,6.191c-2.16,2.304-7.488,11.23-22.318,9.646c0,0-3.888-0.432-2.735-3.312
	c1.151-2.879,1.439-6.767,4.319-6.335C164.054,394.189,168.807,391.454,169.958,382.383z"/>
<path fill="#899798" d="M157.288,392.462c0,0,0.719,8.783-2.737,9.936c-3.456,1.151-16.125,2.015-17.278,0.143
	c-1.151-1.871-2.303-6.047-1.728-6.047c0.577,0,6.479-7.487,7.632-7.344c1.152,0.145,4.031-4.318,9.502-3.167
	C158.152,387.135,157.288,392.462,157.288,392.462z"/>
<path fill="#899798" d="M135.834,397.646c0,0-6.911,1.439-7.919-6.336c0,0-5.328-0.287-4.751-6.623
	c0.576-6.335-0.433-12.095,4.464-12.383c0,0,1.296-4.751,4.031-6.047c2.736-1.296,6.479-7.344,9.792-6.336
	c3.311,1.009,10.51,4.321,11.23,7.056c0.721,2.735-2.735,19.726-2.735,19.726l-5.616,2.736c0,0-1.727-3.743-4.032-3.888l-0.143,2.88
	l1.871,2.592C142.025,391.022,142.6,397.357,135.834,397.646z"/>
<path fill="#899798" d="M188.964,380.871l-9.935,1.943c0,0-17.062,18.79-21.166,17.062s-17.926-8.854-17.926-8.854
	s-5.615-7.991-5.399-8.64c0.216-0.647,5.184-9.719,5.184-9.719l10.15-14.471l16.846,5.399L188.964,380.871z"/>
<rect x="44.33" y="139.896" fill="none" stroke="#899798" stroke-width="7.7751" stroke-linejoin="round" stroke-miterlimit="10" width="234.242" height="292"/>
<rect x="318.347" y="51.896" fill="#FFFFFF" stroke="#899798" stroke-width="7.3757" stroke-linejoin="round" stroke-miterlimit="10" width="222.208" height="277"/>
<rect x="165.922" y="293.888" fill="#FFFFFF" stroke="#899798" stroke-width="9" stroke-linejoin="round" stroke-miterlimit="10" width="271.143" height="338"/>
<circle fill="#899798" cx="213.417" cy="352.229" r="10.083"/>
<line fill="none" stroke="#899798" stroke-width="9" stroke-linejoin="round" stroke-miterlimit="10" x1="242" y1="352.562" x2="397.334" y2="352.562"/>
<circle fill="#899798" cx="213.417" cy="388.729" r="10.083"/>
<line fill="none" stroke="#899798" stroke-width="9" stroke-linejoin="round" stroke-miterlimit="10" x1="242" y1="389.062" x2="397.334" y2="389.062"/>
<circle fill="#899798" cx="213.417" cy="425.229" r="10.083"/>
<line fill="none" stroke="#899798" stroke-width="9" stroke-linejoin="round" stroke-miterlimit="10" x1="242" y1="425.562" x2="397.334" y2="425.562"/>
<circle fill="#899798" cx="213.417" cy="461.729" r="10.083"/>
<line fill="none" stroke="#899798" stroke-width="9" stroke-linejoin="round" stroke-miterlimit="10" x1="242" y1="462.062" x2="397.334" y2="462.062"/>
<circle fill="#899798" cx="213.417" cy="498.229" r="10.083"/>
<line fill="none" stroke="#899798" stroke-width="9" stroke-linejoin="round" stroke-miterlimit="10" x1="242" y1="498.562" x2="397.334" y2="498.562"/>
<circle fill="#899798" cx="213.417" cy="534.729" r="10.083"/>
<line fill="none" stroke="#899798" stroke-width="9" stroke-linejoin="round" stroke-miterlimit="10" x1="242" y1="535.062" x2="397.334" y2="535.062"/>
<circle fill="#899798" cx="213.417" cy="571.229" r="10.083"/>
<line fill="none" stroke="#899798" stroke-width="9" stroke-linejoin="round" stroke-miterlimit="10" x1="242" y1="571.562" x2="397.334" y2="571.562"/>
<path fill="none" stroke="#899798" stroke-width="4" stroke-miterlimit="10" d="M527.587,140.333c-43-1-50.5-13.5-65.5-13.5
	s-15.657,9.477-15.657,9.477c-9.686,44.859-22.465,66.666-39.068,66.666c-0.956,0-1.926-0.078-2.881-0.23
	c-5.56-0.891-9.961-4.264-12.393-9.502c-5.554-11.959-0.449-32.562,14.005-56.525c0,0,6.494-6.385-5.006-10.385s-18.5,14-31.5,13"/>
<path fill="#899798" d="M476.087,65.833c0,0-27,25-36.5,69s-21.5,63-34,61s-12.5-24,6.5-55.5S455.587,71.833,476.087,65.833z"/>
<path fill="none" stroke="#899798" stroke-width="3" stroke-miterlimit="10" d="M528.921,153.833c0,0-12.668-0.666-15.334,4.334
	s-14,7.334-21.333-4s-13-6.668-17.333-4.668c-4.334,2-13.001,1.334-15.334-0.332c-2.333-1.668-10.666,1.666-10.333,12
	c0.333,10.332,2.333,20,12.333,26s3.334,17.666-5,14.666c-8.333-3-11.333-20-12.667-25c-1.333-5-6.333,3.668-4,9.334
	c2.334,5.666,13.334,20.332,5,25c-8.333,4.666-16.332,1-13.666-8s-9,3-14.667,5.332c-2.842,1.17-16,4.668-24-2.332
	s-14.667-24.668-4-46.668s-4.999-13-8.333-8s-12.334,10.668-16.667,3.668s-19-3.334-19-3.334"/>
<line fill="none" stroke="#899798" stroke-width="7.3757" stroke-linejoin="round" stroke-miterlimit="10" x1="351" y1="242.562" x2="510.334" y2="242.562"/>
<line fill="none" stroke="#899798" stroke-width="6" stroke-linejoin="round" stroke-miterlimit="10" x1="625.486" y1="194.565" x2="748.568" y2="194.565"/>
<line fill="none" stroke="#899798" stroke-width="6" stroke-linejoin="round" stroke-miterlimit="10" x1="625.486" y1="222.565" x2="748.568" y2="222.565"/>
<line fill="none" stroke="#899798" stroke-width="7.3757" stroke-linejoin="round" stroke-miterlimit="10" x1="351" y1="267.896" x2="510.334" y2="267.896"/>
</svg>
