<?xml version="1.0" encoding="utf-8"?>
<!-- Generator: Adobe Illustrator 16.0.0, SVG Export Plug-In . SVG Version: 6.00 Build 0)  -->
<!DOCTYPE svg PUBLIC "-//W3C//DTD SVG 1.1//EN" "http://www.w3.org/Graphics/SVG/1.1/DTD/svg11.dtd">
<svg version="1.1" id="Layer_1" xmlns="http://www.w3.org/2000/svg" xmlns:xlink="http://www.w3.org/1999/xlink" x="0px" y="0px"
	 width="853.562px" height="641.968px" viewBox="0 11.556 853.562 641.968" enable-background="new 0 11.556 853.562 641.968"
	 xml:space="preserve">
<g>
	
		<rect x="397.757" y="141.929" fill="#FFFFFF" stroke="#899798" stroke-width="10.9274" stroke-linejoin="round" stroke-miterlimit="10" width="329.208" height="410.385"/>
	<path fill="none" stroke="#899798" stroke-width="5.9261" stroke-miterlimit="10" d="M707.753,272.952
		c-63.706-1.481-74.817-20.001-97.04-20.001c-22.224,0-23.197,14.04-23.197,14.04c-14.35,66.46-33.281,98.768-57.881,98.768
		c-1.416,0-2.854-0.115-4.268-0.342c-8.237-1.318-14.758-6.316-18.36-14.077c-8.229-17.718-0.666-48.242,20.749-83.744
		c0,0,9.621-9.459-7.417-15.385c-17.037-5.927-27.408,20.741-46.668,19.26"/>
	<path fill="#899798" d="M631.454,162.578c0,0-40.002,37.038-54.076,102.226s-31.853,93.335-50.372,90.373
		c-18.519-2.963-18.52-35.557,9.63-82.225C564.785,226.283,601.082,171.467,631.454,162.578z"/>
	<path fill="none" stroke="#899798" stroke-width="4.4446" stroke-miterlimit="10" d="M709.729,292.953
		c0,0-18.769-0.987-22.718,6.42c-3.95,7.408-20.742,10.866-31.604-5.926c-10.864-16.791-19.262-9.879-25.681-6.916
		c-6.421,2.964-19.262,1.977-22.718-0.491c-3.457-2.472-15.802,2.468-15.309,17.778c0.493,15.307,3.456,29.631,18.271,38.52
		c14.815,8.89,4.939,26.173-7.407,21.729c-12.346-4.445-16.791-29.631-18.767-37.04c-1.976-7.407-9.383,5.435-5.927,13.829
		c3.458,8.395,19.755,30.123,7.408,37.039c-12.347,6.912-24.196,1.48-20.247-11.854c3.95-13.333-13.334,4.445-21.729,7.9
		c-4.21,1.732-23.704,6.914-35.557-3.455c-11.854-10.371-21.729-36.547-5.926-69.141c15.803-32.594-7.406-19.26-12.347-11.852
		c-4.938,7.407-18.272,15.805-24.692,5.434c-6.419-10.37-28.148-4.939-28.148-4.939"/>
	<g>
		
			<rect x="426.334" y="438.562" fill="none" stroke="#899798" stroke-width="8.1955" stroke-linejoin="round" stroke-miterlimit="10" width="121.039" height="87.332"/>
		
			<rect x="573.961" y="438.562" fill="none" stroke="#899798" stroke-width="8.1955" stroke-linejoin="round" stroke-miterlimit="10" width="121.04" height="87.332"/>
	</g>
	<path fill="#899798" d="M496.345,491.892h-16.683l-3.418,9.388h-8.457l15.754-41.07h9.271l15.641,41.07h-8.689L496.345,491.892z
		 M482.325,484.595h11.354l-5.676-15.522L482.325,484.595z"/>
	<path fill="#899798" d="M635.8,460.208c2.006,0,3.783,0.278,5.329,0.84c1.544,0.562,2.848,1.334,3.908,2.318
		c1.062,0.979,1.874,2.149,2.435,3.504c0.56,1.352,0.839,2.817,0.839,4.402c0,2.12-0.561,3.979-1.68,5.559
		c-1.12,1.583-2.549,2.668-4.285,3.248c1.002,0.229,1.939,0.636,2.81,1.215c0.868,0.58,1.632,1.283,2.287,2.113
		c0.656,0.829,1.178,1.786,1.563,2.864c0.385,1.085,0.58,2.265,0.58,3.535c0,1.66-0.299,3.197-0.897,4.606
		c-0.602,1.409-1.449,2.616-2.551,3.62c-1.101,1.004-2.433,1.797-3.995,2.376c-1.563,0.58-3.312,0.868-5.243,0.868h-15.87v-41.07
		L635.8,460.208L635.8,460.208z M634.581,477.179c1.854,0,3.293-0.461,4.315-1.391c1.022-0.924,1.536-2.178,1.536-3.762
		s-0.491-2.828-1.478-3.738c-0.985-0.904-2.464-1.361-4.432-1.361h-5.619v10.252H634.581L634.581,477.179z M635.395,494.616
		c1.969,0,3.493-0.472,4.574-1.418c1.082-0.948,1.622-2.249,1.622-3.913c0-1.622-0.511-2.942-1.534-3.965
		c-1.022-1.023-2.541-1.536-4.547-1.536h-6.604v10.832H635.395z"/>
</g>
<g>
	<g>
		<path fill="none" stroke="#899798" stroke-width="10.8967" stroke-miterlimit="10" d="M381.17,344.062
			c0.413,0.414,3.21,8.545,6.216,18.07l19.459,61.678c3.006,9.525-2.329,14.86-11.854,11.854l-61.674-19.463
			c-9.525-3.007-17.656-5.804-18.068-6.216s-6.528-6.528-13.591-13.593L103.464,198.204c-7.063-7.063-7.063-18.621,0-25.684
			l40.239-40.239c7.063-7.062,18.621-7.063,25.684,0l198.19,198.188C374.64,337.532,380.757,343.649,381.17,344.062z"/>
	</g>
	<g>
		<path fill="none" stroke="#899798" stroke-width="7.2645" stroke-miterlimit="10" d="M315.142,409.877l-3.743-21.14
			c-0.491-2.773,1.376-4.641,4.148-4.148l16.098,2.852c2.773,0.49,4.642-1.377,4.149-4.149l-2.848-16.097
			c-0.491-2.772,1.377-4.641,4.148-4.149l16.096,2.851c2.771,0.492,4.641-1.375,4.148-4.148l-2.851-16.1
			c-0.491-2.773,1.376-4.641,4.148-4.148l21.14,3.744"/>
	</g>
	<path fill="#899798" d="M394.119,398.962L370.683,422.4c0,0,33.016,18.886,34.945,11.186
		C407.562,425.888,394.119,398.962,394.119,398.962z"/>
	<polygon fill="#899798" points="111.597,211.472 183.086,139.983 190.787,147.689 119.306,219.177 	"/>
	<polygon fill="#899798" points="128.72,228.593 200.205,157.107 207.914,164.812 136.429,236.298 	"/>
	
		<line fill="none" stroke="#899798" stroke-width="5.4483" stroke-miterlimit="10" x1="314.072" y1="383.979" x2="146.701" y2="216.607"/>
	
		<line fill="none" stroke="#899798" stroke-width="5.4483" stroke-miterlimit="10" x1="334.832" y1="363.22" x2="167.459" y2="195.845"/>
	
		<line fill="none" stroke="#899798" stroke-width="5.4483" stroke-miterlimit="10" x1="355.593" y1="342.459" x2="188.221" y2="175.085"/>
</g>
</svg>
