<?xml version="1.0" encoding="utf-8"?>
<!-- Generator: Adobe Illustrator 16.0.0, SVG Export Plug-In . SVG Version: 6.00 Build 0)  -->
<!DOCTYPE svg PUBLIC "-//W3C//DTD SVG 1.1//EN" "http://www.w3.org/Graphics/SVG/1.1/DTD/svg11.dtd">
<svg version="1.1" id="Layer_1" xmlns="http://www.w3.org/2000/svg" xmlns:xlink="http://www.w3.org/1999/xlink" x="0px" y="0px"
	 width="239.988px" height="244.487px" viewBox="0 0 239.988 244.487" enable-background="new 0 0 239.988 244.487"
	 xml:space="preserve">
<g>
	<path d="M121.626,200.04h-3c0-9.887,8.201-13.535,12.537-14.084l0.188-0.012h55.279V94.561c-8.305,0.058-46.932,0.31-54.633-0.012
		c-7.31-0.311-10.553,8.836-10.584,8.928l-2.836-0.979c0.16-0.463,4.018-11.328,13.545-10.946c8.381,0.35,55.521,0.002,55.997-0.001
		l1.511-0.012v97.406h-58.174C130.439,189.101,121.626,190.716,121.626,200.04z"/>
	<path d="M121.364,200.04h-3c0-9.369-8.793-10.943-9.827-11.096H50.358V91.539l1.511,0.012c0.475,0.002,47.614,0.352,55.999,0.001
		c9.538-0.365,13.385,10.482,13.545,10.945l-2.836,0.979l1.418-0.489l-1.417,0.491c-0.031-0.092-3.272-9.226-10.584-8.928
		c-7.701,0.321-46.329,0.07-54.635,0.012v91.383l55.469,0.012C113.164,186.505,121.364,190.153,121.364,200.04z"/>
	<path d="M121.626,207.759h-3c0-9.887,8.201-13.535,12.537-14.084l0.188-0.012h63.797v-91.385l-7.27,0.042l-0.016-3l10.285-0.061
		v97.404h-66.691C130.439,196.819,121.626,198.435,121.626,207.759z"/>
	<path d="M121.364,207.759h-3c0-9.369-8.793-10.943-9.827-11.096H41.843V99.26l9.756,0.054l-0.016,3l-6.74-0.037v91.386
		l63.985,0.012C113.164,194.224,121.364,197.872,121.364,207.759z"/>
	<path d="M121.626,215.212h-3c0-9.889,8.201-13.537,12.537-14.086l0.188-0.012h72.312V109.73c-1.5,0.01-4.041,0.025-7.27,0.043
		l-0.016-3c5.322-0.029,8.774-0.053,8.775-0.053l1.51-0.01v97.404h-75.207C130.439,204.271,121.626,205.886,121.626,215.212z"/>
	<path d="M121.364,215.212h-3c0-9.318-8.795-10.939-9.831-11.098H33.325v-97.4l1.506,0.006c0,0,5.358,0.021,10.381,0.047l-0.016,3
		c-3.387-0.018-6.926-0.032-8.871-0.041v91.388l72.502,0.012C113.164,201.675,121.364,205.323,121.364,215.212z"/>
	<path d="M115.072,135.845c0.694,0.287,1.416,0.588,2.162,0.926l3.166,1.443c0.696-0.295,1.377-0.596,2.026-0.92
		c0.179-0.09,1.866-0.895,2.858-1.367l0.375-8.6c-1.153,0.291-2.297,0.57-3.42,0.836c-1.033,0.244-2.021,0.473-2.961,0.689
		c-1.66,0.383-3.409,0.787-4.959,1.193l0.232,5.582C114.725,135.7,114.885,135.769,115.072,135.845z"/>
	<path d="M124.255,159.247l-3.791-1.758c-1.357,0.564-2.687,1.146-3.96,1.758c-0.312,0.15-0.631,0.311-0.951,0.484l2.356,56.691
		h3.869l2.491-57.168C124.264,159.251,124.259,159.249,124.255,159.247z"/>
	<path d="M128.118,67.898l0.209-4.807h-16.667l0.248,5.951C116.825,68.457,122.231,68.108,128.118,67.898z"/>
	<path d="M133.658,91.757"/>
	<path d="M120.325,100.591c0,0-2.813-4.364-7.497-6.407l0.54,12.979l6.992,1.532c1.483-0.329,2.956-0.649,4.388-0.958
		c0.581-0.125,1.179-0.254,1.782-0.386l0.555-12.746C123.755,95.488,121.343,98.005,120.325,100.591z"/>
	<path d="M174.74,80.124c16.138-4.185,23.411-11.703,23.585-24.38c0.234-17.1-8.538-26.403-26.072-27.655
		c-6.49-0.462-16.549,5.72-19.036,11.533c-0.963,2.248-0.683,4.192,0.832,5.779c1.742,1.824,4.626,2.871,7.914,2.871
		c2.227,0,4.444-0.5,6.245-1.407c4.438-2.238,6.859-7.16,6.883-7.209l0.182-0.376l0.395-0.135c0.095-0.032,2.347-0.792,5.017-0.792
		c3.352,0,8.975,1.266,8.975,9.738c0,17.712-6.6,23.663-45.658,24c-40.772,0.352-56.745,6.348-61.041,22.917
		c-2.211,8.53,2.046,15.378,13.015,20.92c3.186-1.961,7.235-3.664,12.526-5.258c-4.578-1.103-7.95-3.846-9.009-5.08
		c-1.919-2.239-3.842-5.573-1.655-10.681c2.654-6.2,11.212-9.728,25.435-10.484c3.675-0.195,7.616-0.327,11.79-0.467
		C148.459,83.509,163.644,83,174.74,80.124z"/>
	<path d="M121.204,123.784c12.344-2.917,29.416-7.894,35.142-17.391c2.072-3.438,2.548-7.162,1.453-11.385
		c-0.14-0.539-0.274-0.758-0.479-1.088c-0.082-0.133-0.173-0.281-0.271-0.46c-4.539,0.228-8.972,0.258-12.369,0.258
		c-1.679,0-3.357-0.008-5.025-0.016c2.129,1.445,3.433,3.131,3.889,5.035c0.632,2.632-0.612,4.647-3.219,7.687
		c-1.535,1.792-6.186,3.892-14.629,5.712c-12.926,2.786-30.63,6.603-32.622,15.181c-1.818,7.834,0.889,13.154,9.046,17.701
		c3.499-2.359,7.344-3.869,10.911-5.146c-3.375-1.4-6.263-2.73-7.485-7.623c-0.272-1.088-0.146-2.07,0.373-2.918
		c1.436-2.344,5.542-3.292,12.345-4.863C119.199,124.252,120.18,124.026,121.204,123.784z"/>
	<path d="M42.158,55.257c0.055,12.708,8.118,21.394,24.084,25.532c3.965,1.027,10.319,1.892,14.846,2.255
		c2.84-5.085,6.874-8.489,13.212-10.981c-37.456-0.546-43.2-6.068-43.2-23.972c0-8.844,5.148-10.165,8.217-10.165
		c3.025,0,5.744,1.201,5.858,1.252l0.332,0.148l0.159,0.328c0.024,0.049,2.465,4.981,6.884,7.21
		c1.801,0.907,4.019,1.407,6.246,1.407c3.287,0,6.172-1.047,7.914-2.871c1.514-1.587,1.794-3.531,0.832-5.779
		c-2.403-5.616-12.516-11.533-19.037-11.533c-0.229,0,0.221-0.016,0,0C62.029,28.551,42.046,29.461,42.158,55.257z"/>
	<path d="M147.684,127.317c-0.42-1.811-1.554-3.466-3.461-5.047c-3.709,1.643-7.959,3.148-12.903,4.57
		c2.434,0.963,4.612,2.524,3.893,5.409c-1.261,5.047-4.293,6.301-7.803,7.752c-0.956,0.396-1.944,0.805-2.971,1.318
		c-2.455,1.227-5.206,2.195-7.866,3.133c-9.147,3.221-18.606,6.551-20.591,21.189c-2.202,16.24,18.213,25.498,23.676,27.67v-3.947
		c-9.673-5.102-15.599-12.834-15.507-20.291c0.071-5.771,3.768-10.701,10.408-13.883c3.538-1.695,7.381-3.156,11.098-4.566
		C139.188,145.487,150.872,141.05,147.684,127.317z"/>
	<path d="M144.775,165.642c-0.832-6.141-3.045-10.781-6.758-14.16c-3.503,1.662-7.313,3.109-10.408,4.283l-0.161,0.062
		c5.853,3.184,9.092,7.848,9.158,13.246c0.092,7.457-5.833,15.189-15.506,20.291v3.947
		C126.562,191.136,146.976,181.868,144.775,165.642z"/>
	<circle cx="119.994" cy="51.258" r="5.987"/>
</g>
</svg>
