<?xml version="1.0" encoding="utf-8"?>
<!-- Generator: Adobe Illustrator 16.0.0, SVG Export Plug-In . SVG Version: 6.00 Build 0)  -->
<!DOCTYPE svg PUBLIC "-//W3C//DTD SVG 1.1//EN" "http://www.w3.org/Graphics/SVG/1.1/DTD/svg11.dtd">
<svg version="1.1" id="Layer_1" xmlns="http://www.w3.org/2000/svg" xmlns:xlink="http://www.w3.org/1999/xlink" x="0px" y="0px"
	 width="233.988px" height="212.989px" viewBox="0 0 233.988 212.989" enable-background="new 0 0 233.988 212.989"
	 xml:space="preserve">
<path fill="#FFFFFF" d="M84.905,176.893v-113c0,0-0.5-35-22.5-41.5v98.5C62.405,120.893,82.494,127.329,84.905,176.893z"/>
<path fill="#FFFFFF" d="M80.827,163.328c0,0-5.756-22.768-40.423-21.435v-113c0,0,14.667,2.333,18.333,5v89
	C58.738,122.893,75.584,129.763,80.827,163.328z"/>
<path fill="#FFFFFF" d="M88.405,72.393v103c0,0,20.5-59,108,16v-117.5C196.405,73.893,122.405,9.893,88.405,72.393z M166.97,141.68
	l-5.868-39.191l-16.074,39.191h-7.045l-15.261-39.191l-5.868,39.191H99.245l11.557-68.087h17.52l13.638,36.301L155.5,73.593h17.52
	l11.562,68.087H166.97z"/>
</svg>
